<svg width="34" height="32" viewBox="0 0 34 32" fill="none" xmlns="http://www.w3.org/2000/svg">
<path d="M22.681 26.4845L1.2684 11.714C-0.901507 10.2173 -0.163881 7.10088 2.54194 6.36802L25.2997 0.191307C25.7818 0.0173566 26.2984 -0.0391112 26.8067 0.0265948C27.3149 0.0923008 27.8002 0.278283 28.2223 0.569108C28.6442 0.859932 28.9908 1.24721 29.2331 1.6988C29.4754 2.15038 29.6066 2.65326 29.6157 3.16568L28.2669 24.1116C28.107 26.5978 24.8509 27.9812 22.681 26.4845Z" fill="white"/>
<path d="M15.8896 30.1304L3.27476 5.46053C2.98639 4.89617 2.8595 4.26311 2.90807 3.6312C2.95664 2.99929 3.17878 2.39306 3.54999 1.87938C3.92122 1.36571 4.42709 0.964526 5.01183 0.720083C5.59657 0.47564 6.23746 0.397438 6.86382 0.494105L30.2423 4.10225C30.7805 4.18534 31.2913 4.39499 31.7328 4.71397C32.1742 5.03296 32.5336 5.45217 32.7815 5.93712C33.0293 6.42208 33.1585 6.95894 33.1584 7.50356C33.1583 8.04818 33.0289 8.58501 32.781 9.06988L22.0114 30.1316C21.7222 30.6943 21.2835 31.1665 20.7434 31.496C20.2033 31.8257 19.5829 32 18.9502 31.9998C18.3174 31.9997 17.697 31.8252 17.1571 31.4954C16.6171 31.1655 16.1786 30.6932 15.8896 30.1304Z" fill="white"/>
<path d="M23.5791 8.72693L19.0903 8L13.5791 9.57011L15.7789 14.0856L20.9301 17.8153C21.0438 17.8966 21.1688 17.959 21.3007 18L23.2573 13.9852L23.5791 8.72693Z" fill="#0F172A"/>
</svg>
